<?xml version="1.0" encoding="UTF-8"?>
<svg id="Layer_1" xmlns="http://www.w3.org/2000/svg" version="1.1" viewBox="0 0 1920 1080">
  <!-- Generator: Adobe Illustrator 29.0.0, SVG Export Plug-In . SVG Version: 2.1.0 Build 186)  -->
  <defs>
    <style>
      .st0 {
        fill: #4e9776;
      }

      .st1 {
        fill: #217d53;
      }

      .st2 {
        fill: #85b8a1;
      }

      .st3 {
        fill: #137548;
      }

      .st4 {
        fill: #15764a;
      }

      .st5 {
        fill: #529978;
      }

      .st6 {
        fill: #62a486;
      }

      .st7 {
        fill: #b9d653;
      }

      .st8 {
        fill: #517937;
      }

      .st9 {
        fill: #30865f;
      }

      .st10 {
        fill: #107346;
      }

      .st11 {
        fill: #f3f7f5;
      }

      .st12 {
        fill: #cde2d8;
      }

      .st13 {
        fill: #f3f8f6;
      }

      .st14 {
        fill: #7eb39b;
      }

      .st15, .st16 {
        fill: #127447;
      }

      .st17 {
        fill: #81b59e;
      }

      .st18 {
        fill: #b0d13d;
      }

      .st19 {
        fill: #f7faf9;
      }

      .st20 {
        fill: #517a37;
      }

      .st21 {
        fill: #afd13b;
      }

      .st22 {
        fill: #f7faf8;
      }

      .st23 {
        fill: #87b8a2;
      }

      .st24 {
        fill: #fbfcfb;
      }

      .st25 {
        fill: #afd13a;
      }

      .st26 {
        fill: #aed038;
      }

      .st16 {
        font-family: SpecialElite-Regular, 'Special Elite';
        font-size: 85.57px;
      }
    </style>
  </defs>
  <path class="st15" d="M797.28,364.29c5.62-1.57,7.53-.61,5.74,2.87-19.23,11.83-17.37,26.14.19,38.56,46.94,33.19,214.09,34.47,259.74-1.25,9.19-7.19,13.9-13.81,14.36-25.81,11.29,4.9,5.4,35.53,7.18,37.31,4.58,4.58,42.48-13.1,43.33,27.26.63,30.1-26.03,61.96-49.06,78.93-4,3.46-5.55,1.95-2.87-2.87,14.31-14.92,32.58-37.38,34.5-58.85.53-5.9.56-19.58-3.59-23.7-3.68-3.66-18.24-5.26-22.47-2.28-2.36,1.66-12.65,45.65-16.54,55.22-8.45,20.8-20.23,38.74-34.99,55.45-4.04,3.8-5.52,2.2-2.87-2.87,23.17-34.91,34.75-78.78,37.33-120.54-21.09,6.7-41.02,14.66-63.02,18.8-72.7,13.67-148.64,7.16-218.45-15.91,12.86,90.5,86.2,182.21,186.7,160.71,4.72-1.56,5.36-1.75,2.87,2.87-34.35,14.18-78.42,13.46-112.02-2.87-50.65-24.62-88.8-94.2-97.32-148.17-6.88-43.56-9.02-53.84,31.25-72.85Z"/>
  <path class="st10" d="M834.62,364.29c4.59-.73,6.51.22,5.74,2.87-12.46,2.04-30.01,11.97-14.41,22.96,1.05-10.08,9.76-12.3,17.92-15.15,35.76-12.51,100.63-12.24,138.32-7.46,18.21,2.31,37.17,5.05,53.46,14,.66-8.06-7.69-10.84-12.41-14.84-2.54-2.15-9.32-5.63-.54-5.21,59.58,29.14,5.54,42.39-29.5,47.92-47.49,7.49-106.29,9.16-152.86-3.45-38.52-10.43-51.76-27.55-5.73-41.64Z"/>
  <path class="st15" d="M1107.5,754.66c7.54,2.7,7.54,7.48,0,14.35-4.48,30.22-52.37,27.95-76.24,25.95-16-1.34-17.32-2.66-18.66-18.65-1.09-12.97-1.46-85.16,3.2-91.76,2.13-3.03,3.25-3.84,6.97-4.52,12.96-2.35,61.49-1.6,71.42,6.14,27.75,21.62-3.93,44.24-3.86,46.97.06,2.31,21.47,11.15,17.18,21.53Z"/>
  <path class="st3" d="M771.43,585.31c4.33-1.27,5.05-1.32,2.87,2.87-22.78,11.89-6.28,20.82,10.75,28.01,66.18,27.94,239.53,28.54,305.16-.79,17.05-7.62,29.96-15.36,8.67-27.22-3.8-3.72-2.21-4.53,2.87-2.87,17.32,5.94,48.98,14.01,21.05,33.95-60.86,43.46-309.18,41.72-370.59,1.03-30.75-20.37.61-28.68,19.22-34.99Z"/>
  <path class="st3" d="M808.77,754.66c-15.91,6.16-45.62-1-54.68,4.21-6.22,3.58,4.84,19.95,13.11,21.54,22.49,4.34,29.26-14.28,37.24-14.37,15.24-.18,3.62,21.92-10.81,26.59-46.79,15.15-73.53-20.05-59.53-63.79-7.13,1.31-15.41-3.72-22.22-1.06-2.9,1.14-9.39,12.85-9.39,13.96v45.93c0,10.55-20.25,10.93-22.9-2.95-1.86-9.75-1.48-52.49.11-62.88,1.39-9.06,7.96-17.89,17.21-11.72,2.4,1.6,1.62,7.31,4.19,7.3,4.75-.02,8.14-5.94,12.75-7.45,17.54-5.77,23.07,9.27,27.4,9.57,2.15.15,12.5-8.12,18.49-9.56,24.13-5.78,37.83,1.96,49.04,21.72,7.32,11.73,7.32,19.38,0,22.96Z"/>
  <path class="st15" d="M650.39,771.48c2.13-3.36-.53-14.69.42-19.71-57.28.5-27.26-24.61,12.83-17.13,13.44,2.51,12.09,27.84,10.06,38.6-4.1,21.76-50.49,23.63-67.17,21.35-62.46-8.55-62.78-129.75,28.22-117.18,29.27,4.04,49.69,42.44,23.38,40.06-12.09-1.09-15.68-31.11-47.09-21.18-33.31,10.53-30.84,73.98-1.29,80.71,7.27,1.66,37.2-.1,40.65-5.53Z"/>
  <path class="st15" d="M1279.84,718.78c2.91-13.97,21.02-13.76,21.57,1.47,13.96-9.94,30.41-18.05,45.98-5.83,2.35,1.85,10,11.15,10,12.97v63.15c0,4.1-14.79,7.23-18.78,1.54-4.91-7.01-1.99-43.84-4.28-56-3.58-19.08-31.52-7.51-31.52,2.79v117.69c0,9.67-22.98,6.59-22.98,0v-137.78Z"/>
  <path class="st3" d="M1196.54,763.27c.92-1.69.42-4.65,2.67-7.26,8.93-10.34,51.11-11.56,52.11-17.46,2.49-14.67-14.66-17.87-25.31-13.3-6.41,2.75-23.88,27.84-29.06,7.29-5.92-23.5,63.82-36.89,73-6.73,3.42,11.24.46,26.71,1.32,38.87.42,6.02,9.23,28.32.98,30.35-12.4,3.04-16.85-8.82-22.02-8.37-4.02.35-10.04,6.36-15.54,7.54-12.83,2.76-35.34,2.73-38.14-13.7-6.78-7.33-7.28-10.42-1.51-9.25l1.51-7.97Z"/>
  <path class="st3" d="M1107.5,754.66c7.83-33.5,31.44-59.93,68.07-40.75,16.93,8.87,24.55,43.62,10.92,43.62h-53.14c.53,19.58,13,27.75,31.77,21.68,10.52-3.4,15.79-20.57,28.52-7.33-.67-3.66,1.36-5.77,2.9-8.61.61,5.44-.87,12.09,0,17.22-6.03-12.44-5.99.12-12.79,5.89-22.01,18.68-65.72,10.11-70.53-21.63l-5.72,4.26c.65-4.39-.92-10.43,0-14.35Z"/>
  <path class="st3" d="M808.77,731.7c1.95,3.43,1.94,9.04,5.71,8.59,5.27-39.63,69-42.64,79.1-5.81,1.74,6.33,1.85,23.05-5.82,23.05h-53.14c.85,18.73,14.33,26.96,32.34,22.24,6.97-1.83,24.01-23.87,27.52-6.04,1.56,7.91-12.7,17.98-19.57,19.76-31.98,8.27-63.82-5.26-60.42-41.72-1.99.74-3.75,2.13-5.72,2.89v-22.96Z"/>
  <path class="st15" d="M900.69,713.04c.69-2.28,4.57-4.27,7.22-4.51,11.33-1.05,12.72,12.34,14.3,11.67,11.26-4.74,12.77-14.06,31.4-11.36,6.99,1.02,21.76,12.49,21.76,18.55v63.15c0,5.87-20.11,5.87-20.11,0v-54.54c0-17.03-34.47-11.43-34.47,8.61v45.93c0,5.87-20.11,5.87-20.11,0,0-15.53-3.12-67.22,0-77.5Z"/>
  <path class="st8" d="M975.38,456.16c36.99,14.37,31.66,73.85,7.15,97.56-14.38,13.91-44.42,21.85-31.55-8.58,9.65-22.82,33.43-39.64,29.91-67.22-.95-7.47-6.25-13.88-5.51-21.76Z"/>
  <path class="st4" d="M863.35,585.31c-9.77,9.64-9.93,14.16,3.7,20.7,33.35,16.02,111.43,13.26,142.8-7.86l-8.62-12.82c23.4,5.09,37.76,17.29,9.28,30.77-35.72,16.91-100.86,15.58-138.51,5.05-28.59-7.99-48.67-22.71-8.65-35.85Z"/>
  <path class="st20" d="M943.76,568.07c-27.49-11.36-26.19-50.95-15.79-74.62,5.19-11.82,25.4-35.98,39.83-31.35,21.44,6.89-21.95,63.65-24.93,74.92-3.3,12.5-.21,18.84.89,31.05Z"/>
  <path class="st25" d="M929.38,347.05c-4.77.03-5.56-9.7-5.74-12.9-2.72-48.26,58.23-41.5,79.13-70.21,11.12-15.27,3.95-18.7,2.75-34.55,55.41,67.17-77.59,59.68-76.14,117.65Z"/>
  <path class="st26" d="M917.21,540.07c4.29,4.59,8.74,25.09,17.94,30.85-41.1,8.02-81-41.52-56-77.46,3.23,11.38,4.02,24.06,12.91,33,7.01,7.04,21.42,9.63,25.14,13.61Z"/>
  <path class="st18" d="M929.37,275.29c-4.02.65-5.57-8.03-5.59-10.31-.18-31.15,68.16-38.05,69.14-62.89.23-5.79-4.78-11.4-1.78-15.75,41.28,50.13-57.19,47.32-61.78,88.95Z"/>
  <path class="st21" d="M920.68,493.58l-5.66,34.32c-34.03-15.76-43.94-45.97,5.66-34.32Z"/>
  <path class="st7" d="M937.98,220.77c-7.46-2.67-6.11-6.97-2.45-12.54,9.47-14.39,40.96-13.57,38.39-39.12,20.18,30.9-31.3,26.9-35.94,51.65Z"/>
  <path class="st1" d="M825.99,585.34c-3.76,5.99-13.64,8.04-11.1,18.06s18.02,6.3,16.83,16.35c-32.28-5.94-47.27-27.48-5.73-34.41Z"/>
  <path class="st9" d="M1035.69,616.85c2.48-7.66,13.91-6.34,16.81-13.35,5.48-13.24-7.33-7.81-11.05-15.3,44.32.94,25.89,25.39-5.76,28.65Z"/>
  <path class="st5" d="M834.62,364.29c7.48-2.29,26.56-8.61,33.03-8.61h44.52l-71.81,11.48-5.74-2.87Z"/>
  <path class="st23" d="M797.28,364.29c10.02-4.73,19.94-11.42,31.58-11.45l-25.84,14.32-5.74-2.87Z"/>
  <path class="st0" d="M1032.82,545.12c-5.27,5.97-9.75,13.41-17.21,17.22,0-8.35,10.65-14.55,14.33-20.09l2.87,2.87Z"/>
  <path class="st14" d="M771.43,585.31c5.73-1.94,11.57-8.09,20.09-5.71-2.82,4.38-11.68,5.69-17.22,8.58l-2.87-2.87Z"/>
  <path class="st2" d="M972.5,585.31c3.7-.79,10.64-8.1,17.23-5.71,3.13,2.42-12,7.61-14.36,8.58l-2.87-2.87Z"/>
  <path class="st6" d="M1101.75,585.31l-2.87,2.87c-2.66-1.48-17.7-7.02-14.35-8.58,7.24-1.8,12.41,4.06,17.22,5.71Z"/>
  <path class="st17" d="M1078.77,522.16c-1.48,1.09-7.68,6.89-8.59,5.74-1.74-6.17,3.25-6.04,5.72-8.61l2.87,2.87Z"/>
  <path class="st12" d="M871.95,372.93c-5.34,8.36-22.39,4.06-23.02,17.19-16.88-10.51,13.27-16.63,23.02-17.19Z"/>
  <path class="st19" d="M1038.55,743.16c12.81.92,42.74-4.64,47.71,11.42,6.81,22.01-30.97,26.89-45.86,22.62-7.08-2.03.95-26.5-1.85-34.04Z"/>
  <path class="st24" d="M1078.07,700.81c20.42,20.37-24.64,30.97-39.52,25.16v-28.73c9.45,1.15,32.98-2.95,39.52,3.57Z"/>
  <path class="st13" d="M791.53,746.03h-37.34c-1.65-31.52,36.15-29.12,37.34,0Z"/>
  <path class="st22" d="M1251.1,754.67c7.01,20.19-23.03,35.9-34.3,21.16-11.58-15.15,24.36-20.63,34.3-21.16Z"/>
  <path class="st13" d="M1170.7,746.04c-10.45-.99-23.02,1.45-33.11.02-3.83-.54-5.08,1.56-4.27-4.31,3.49-25.34,40.9-24.59,37.38,4.29Z"/>
  <path class="st11" d="M874.84,746.05h-40.21c2.7-30.33,38.07-30.21,40.21,0Z"/>
  <text class="st16" transform="translate(562.61 883.34)"><tspan x="0" y="0">Coffe and more</tspan></text>
</svg>